<svg xmlns="http://www.w3.org/2000/svg" viewBox="0 0 512 512" role="img" aria-labelledby="title desc">
  <title id="title">Sudoku Icon</title>
  <desc id="desc">A stylized Sudoku board icon</desc>
  <defs>
    <linearGradient id="bg" x1="0" y1="0" x2="1" y2="1">
      <stop offset="0%" stop-color="#ecfeff" />
      <stop offset="100%" stop-color="#dcfce7" />
    </linearGradient>
  </defs>
  <rect width="512" height="512" rx="112" fill="url(#bg)" />
  <rect x="72" y="72" width="368" height="368" rx="44" fill="#ffffff" stroke="#065f46" stroke-width="16" />

  <g stroke="#14b8a6" stroke-width="4">
    <line x1="112.89" y1="72" x2="112.89" y2="440" />
    <line x1="153.78" y1="72" x2="153.78" y2="440" />
    <line x1="235.56" y1="72" x2="235.56" y2="440" />
    <line x1="276.44" y1="72" x2="276.44" y2="440" />
    <line x1="358.22" y1="72" x2="358.22" y2="440" />
    <line x1="399.11" y1="72" x2="399.11" y2="440" />
    <line x1="72" y1="112.89" x2="440" y2="112.89" />
    <line x1="72" y1="153.78" x2="440" y2="153.78" />
    <line x1="72" y1="235.56" x2="440" y2="235.56" />
    <line x1="72" y1="276.44" x2="440" y2="276.44" />
    <line x1="72" y1="358.22" x2="440" y2="358.22" />
    <line x1="72" y1="399.11" x2="440" y2="399.11" />
  </g>

  <g stroke="#065f46" stroke-width="8">
    <line x1="194.67" y1="72" x2="194.67" y2="440" />
    <line x1="317.33" y1="72" x2="317.33" y2="440" />
    <line x1="72" y1="194.67" x2="440" y2="194.67" />
    <line x1="72" y1="317.33" x2="440" y2="317.33" />
  </g>

  <g fill="#0f766e" font-family="'Plus Jakarta Sans', 'Segoe UI', sans-serif" font-size="48" font-weight="700" text-anchor="middle">
    <text x="133.33" y="153">5</text>
    <text x="256" y="153">3</text>
    <text x="378.67" y="153">7</text>
    <text x="133.33" y="275.67">6</text>
    <text x="256" y="275.67">1</text>
    <text x="378.67" y="275.67">9</text>
    <text x="133.33" y="398.33">8</text>
    <text x="256" y="398.33">4</text>
    <text x="378.67" y="398.33">2</text>
  </g>
</svg>
